<svg width="22" height="22" viewBox="0 0 22 22" fill="none" xmlns="http://www.w3.org/2000/svg">
<g clip-path="url(#clip0_157_2092)">
<path d="M4.712e-08 20.1666H22V22H4.712e-08V20.1666ZM22 7.24986V9.16661H19.25V16.5H21.0833V18.3333H0.916666V16.5H2.75V9.16661H4.712e-08V7.24986C-9.13958e-05 6.75582 0.132912 6.27087 0.38503 5.84599C0.637148 5.42112 0.999068 5.07201 1.43275 4.83536L9.68275 0.33544C10.0866 0.114394 10.5396 -0.00146484 11 -0.00146484C11.4604 -0.00146484 11.9134 0.114394 12.3172 0.33544L20.5672 4.83536C21.0009 5.07201 21.3628 5.42112 21.615 5.84599C21.8671 6.27087 22.0001 6.75582 22 7.24986ZM4.58333 16.5H7.33333V9.16661H4.58333V16.5ZM9.16666 9.16661V16.5H12.8333V9.16661H9.16666ZM17.4167 9.16661H14.6667V16.5H17.4167V9.16661ZM20.1667 7.24986C20.1667 7.08518 20.1224 6.92353 20.0383 6.78191C19.9543 6.64028 19.8336 6.52391 19.6891 6.44503L11.4391 1.94511C11.3044 1.87162 11.1534 1.8331 11 1.8331C10.8466 1.8331 10.6956 1.87162 10.5609 1.94511L2.31092 6.44503C2.16636 6.52391 2.04572 6.64028 1.96168 6.78191C1.87764 6.92353 1.8333 7.08518 1.83333 7.24986V7.33328H20.1667V7.24986Z" fill="#292D32"/>
</g>
<defs>
<clipPath id="clip0_157_2092">
<rect width="22" height="22" fill="white"/>
</clipPath>
</defs>
</svg>
