<svg width="17" height="17" viewBox="0 0 17 17" fill="none" xmlns="http://www.w3.org/2000/svg">
<path d="M12.6778 4.19106C12.2603 4.19106 11.8769 3.94963 11.6853 3.57714L11.1924 2.57694C10.8775 1.94923 10.0561 1.43188 9.35789 1.43188H7.79033C7.08527 1.43188 6.26384 1.94923 5.94896 2.57694L5.4561 3.57714C5.26443 3.94963 4.8811 4.19106 4.46354 4.19106C2.97812 4.19106 1.80074 5.45338 1.89658 6.94333L2.25253 12.641C2.33467 14.062 3.09449 15.2277 4.98378 15.2277H12.1576C14.0469 15.2277 14.7998 14.062 14.8888 12.641L15.2448 6.94333C15.3406 5.45338 14.1632 4.19106 12.6778 4.19106ZM7.5439 5.0533H9.59747C9.87812 5.0533 10.1109 5.28783 10.1109 5.57064C10.1109 5.85346 9.87812 6.08799 9.59747 6.08799H7.5439C7.26324 6.08799 7.0305 5.85346 7.0305 5.57064C7.0305 5.28783 7.26324 5.0533 7.5439 5.0533ZM8.57068 12.5514C7.29747 12.5514 6.25699 11.5098 6.25699 10.2199C6.25699 8.92994 7.29062 7.88835 8.57068 7.88835C9.85074 7.88835 10.8844 8.92994 10.8844 10.2199C10.8844 11.5098 9.8439 12.5514 8.57068 12.5514Z" fill="#292D32"/>
</svg>
