<svg width="21" height="21" viewBox="0 0 16 16" fill="none" xmlns="http://www.w3.org/2000/svg">
<path d="M9.41392 7.99999L15.707 1.70759C16.0976 1.31695 16.0976 0.683599 15.707 0.29299C15.3164 -0.0976505 14.683 -0.0976505 14.2924 0.29299L7.99998 6.58605L1.70758 0.29299C1.31694 -0.0976505 0.683589 -0.0976505 0.29298 0.29299C-0.0976288 0.68363 -0.0976601 1.31698 0.29298 1.70759L6.58604 7.99999L0.29298 14.2924C-0.0976601 14.6831 -0.0976601 15.3164 0.29298 15.707C0.683621 16.0976 1.31697 16.0977 1.70758 15.707L7.99998 9.41393L14.2924 15.707C14.683 16.0977 15.3164 16.0977 15.707 15.707C16.0976 15.3164 16.0976 14.683 15.707 14.2924L9.41392 7.99999Z" fill="#292D32"/>
</svg>
