<svg width="27" height="28" viewBox="0 0 27 28" fill="none" xmlns="http://www.w3.org/2000/svg">
<g clip-path="url(#clip0_304_47)">
<path d="M22.5 0H4.5C3.30653 0 2.16193 0.491665 1.31802 1.36684C0.474106 2.242 0 3.42899 0 4.66667L0 18.6667C0 19.9043 0.474106 21.0913 1.31802 21.9665C2.16193 22.8417 3.30653 23.3333 4.5 23.3333H7.7625L12.7699 27.7235C12.973 27.9018 13.2305 27.9996 13.4966 27.9996C13.7627 27.9996 14.0202 27.9018 14.2234 27.7235L19.2375 23.3333H22.5C23.6935 23.3333 24.8381 22.8417 25.682 21.9665C26.5259 21.0913 27 19.9043 27 18.6667V4.66667C27 3.42899 26.5259 2.242 25.682 1.36684C24.8381 0.491665 23.6935 0 22.5 0V0ZM24.75 18.6667C24.75 19.2855 24.5129 19.879 24.091 20.3166C23.669 20.7542 23.0967 21 22.5 21H19.2375C18.7057 21.0002 18.1912 21.1957 17.7851 21.5518L13.5 25.305L9.21712 21.5518C8.81051 21.1952 8.29507 20.9996 7.7625 21H4.5C3.90326 21 3.33097 20.7542 2.90901 20.3166C2.48705 19.879 2.25 19.2855 2.25 18.6667V4.66667C2.25 4.04783 2.48705 3.45434 2.90901 3.01675C3.33097 2.57917 3.90326 2.33333 4.5 2.33333H22.5C23.0967 2.33333 23.669 2.57917 24.091 3.01675C24.5129 3.45434 24.75 4.04783 24.75 4.66667V18.6667Z" fill="#292D32"/>
<path d="M7.875 8.16659H13.5C13.7984 8.16659 14.0845 8.04367 14.2955 7.82488C14.5065 7.60609 14.625 7.30934 14.625 6.99992C14.625 6.6905 14.5065 6.39375 14.2955 6.17496C14.0845 5.95617 13.7984 5.83325 13.5 5.83325H7.875C7.57663 5.83325 7.29048 5.95617 7.07951 6.17496C6.86853 6.39375 6.75 6.6905 6.75 6.99992C6.75 7.30934 6.86853 7.60609 7.07951 7.82488C7.29048 8.04367 7.57663 8.16659 7.875 8.16659Z" fill="#292D32"/>
<path d="M19.125 10.5H7.875C7.57663 10.5 7.29048 10.6229 7.07951 10.8417C6.86853 11.0605 6.75 11.3572 6.75 11.6667C6.75 11.9761 6.86853 12.2728 7.07951 12.4916C7.29048 12.7104 7.57663 12.8333 7.875 12.8333H19.125C19.4234 12.8333 19.7095 12.7104 19.9205 12.4916C20.1315 12.2728 20.25 11.9761 20.25 11.6667C20.25 11.3572 20.1315 11.0605 19.9205 10.8417C19.7095 10.6229 19.4234 10.5 19.125 10.5Z" fill="#292D32"/>
<path d="M19.125 15.1667H7.875C7.57663 15.1667 7.29048 15.2897 7.07951 15.5085C6.86853 15.7273 6.75 16.024 6.75 16.3334C6.75 16.6428 6.86853 16.9396 7.07951 17.1584C7.29048 17.3772 7.57663 17.5001 7.875 17.5001H19.125C19.4234 17.5001 19.7095 17.3772 19.9205 17.1584C20.1315 16.9396 20.25 16.6428 20.25 16.3334C20.25 16.024 20.1315 15.7273 19.9205 15.5085C19.7095 15.2897 19.4234 15.1667 19.125 15.1667Z" fill="#292D32"/>
</g>
<defs>
<clipPath id="clip0_304_47">
<rect width="27" height="28" fill="white"/>
</clipPath>
</defs>
</svg>
