<svg width="22" height="22" viewBox="0 0 22 22" fill="none" xmlns="http://www.w3.org/2000/svg">
<path d="M13.75 18.3333H4.58333C3.3682 18.3319 2.20326 17.8485 1.34403 16.9893C0.484808 16.1301 0.00145554 14.9651 0 13.75L0 4.58333C0.00145554 3.3682 0.484808 2.20326 1.34403 1.34403C2.20326 0.484808 3.3682 0.00145554 4.58333 0L13.75 0C14.9651 0.00145554 16.1301 0.484808 16.9893 1.34403C17.8485 2.20326 18.3319 3.3682 18.3333 4.58333V13.75C18.3319 14.9651 17.8485 16.1301 16.9893 16.9893C16.1301 17.8485 14.9651 18.3319 13.75 18.3333ZM4.58333 1.83333C3.85399 1.83333 3.15451 2.12306 2.63879 2.63879C2.12306 3.15451 1.83333 3.85399 1.83333 4.58333V13.75C1.83333 14.4793 2.12306 15.1788 2.63879 15.6945C3.15451 16.2103 3.85399 16.5 4.58333 16.5H13.75C14.4793 16.5 15.1788 16.2103 15.6945 15.6945C16.2103 15.1788 16.5 14.4793 16.5 13.75V4.58333C16.5 3.85399 16.2103 3.15451 15.6945 2.63879C15.1788 2.12306 14.4793 1.83333 13.75 1.83333H4.58333ZM22 17.4167V5.5C22 5.25689 21.9034 5.02373 21.7315 4.85182C21.5596 4.67991 21.3264 4.58333 21.0833 4.58333C20.8402 4.58333 20.6071 4.67991 20.4352 4.85182C20.2632 5.02373 20.1667 5.25689 20.1667 5.5V17.4167C20.1667 18.146 19.8769 18.8455 19.3612 19.3612C18.8455 19.8769 18.146 20.1667 17.4167 20.1667H5.5C5.25689 20.1667 5.02373 20.2632 4.85182 20.4352C4.67991 20.6071 4.58333 20.8402 4.58333 21.0833C4.58333 21.3264 4.67991 21.5596 4.85182 21.7315C5.02373 21.9034 5.25689 22 5.5 22H17.4167C18.6318 21.9985 19.7967 21.5152 20.656 20.656C21.5152 19.7967 21.9985 18.6318 22 17.4167Z" fill="#292D32"/>
</svg>
