<svg width="28" height="28" viewBox="0 0 28 28" fill="none" xmlns="http://www.w3.org/2000/svg">
<g clip-path="url(#clip0_304_52)">
<path d="M16.254 4.66666C17.203 4.66759 18.1129 5.045 18.784 5.71605C19.455 6.3871 19.8324 7.29698 19.8333 8.246C19.8333 8.55542 19.9563 8.85216 20.175 9.07095C20.3938 9.28975 20.6906 9.41266 21 9.41266C21.3094 9.41266 21.6062 9.28975 21.825 9.07095C22.0438 8.85216 22.1667 8.55542 22.1667 8.246V8.16666C22.1667 8.1445 22.1667 8.12466 22.1667 8.1025C22.1277 6.55985 21.4878 5.09341 20.3833 4.01573C19.2789 2.93805 17.7971 2.33436 16.254 2.33333H15.1667V1.16667C15.1667 0.857247 15.0438 0.560501 14.825 0.341709C14.6062 0.122916 14.3094 0 14 0C13.6906 0 13.3938 0.122916 13.175 0.341709C12.9563 0.560501 12.8333 0.857247 12.8333 1.16667V2.33333H11.746C10.3429 2.33483 8.98601 2.83527 7.91793 3.74521C6.84985 4.65514 6.14018 5.91526 5.91576 7.30032C5.69135 8.68539 5.96682 10.1051 6.69293 11.3058C7.41904 12.5064 8.54847 13.4097 9.87934 13.8542L12.8333 14.84V23.3333H11.746C10.797 23.3324 9.88711 22.955 9.21606 22.2839C8.545 21.6129 8.1676 20.703 8.16667 19.754C8.16667 19.4446 8.04375 19.1478 7.82496 18.929C7.60617 18.7102 7.30942 18.5873 7 18.5873C6.69058 18.5873 6.39384 18.7102 6.17504 18.929C5.95625 19.1478 5.83334 19.4446 5.83334 19.754V19.8333C5.83334 19.8555 5.83334 19.8753 5.83334 19.8975C5.87227 21.4401 6.51218 22.9066 7.61666 23.9843C8.72115 25.0619 10.2029 25.6656 11.746 25.6667H12.8333V26.8333C12.8333 27.1427 12.9563 27.4395 13.175 27.6583C13.3938 27.8771 13.6906 28 14 28C14.3094 28 14.6062 27.8771 14.825 27.6583C15.0438 27.4395 15.1667 27.1427 15.1667 26.8333V25.6667H16.254C17.6571 25.6652 19.014 25.1647 20.0821 24.2548C21.1502 23.3448 21.8598 22.0847 22.0842 20.6997C22.3087 19.3146 22.0332 17.8949 21.3071 16.6942C20.581 15.4936 19.4515 14.5903 18.1207 14.1458L15.1667 13.16V4.66666H16.254ZM17.3857 16.3578C18.1923 16.6263 18.8771 17.1731 19.3173 17.9004C19.7576 18.6277 19.9246 19.488 19.7885 20.3272C19.6523 21.1664 19.2219 21.9297 18.5743 22.4805C17.9267 23.0313 17.1042 23.3336 16.254 23.3333H15.1667V15.6182L17.3857 16.3578ZM12.8333 12.3818L10.6167 11.6422C9.8102 11.3737 9.12557 10.8271 8.68529 10.1C8.24502 9.37299 8.07785 8.51299 8.21369 7.67395C8.34953 6.83491 8.77952 6.07159 9.42671 5.5206C10.0739 4.96961 10.896 4.6669 11.746 4.66666H12.8333V12.3818Z" fill="#292D32"/>
</g>
<defs>
<clipPath id="clip0_304_52">
<rect width="28" height="28" fill="white"/>
</clipPath>
</defs>
</svg>
