<svg width="22" height="22" viewBox="0 0 22 22" fill="none" xmlns="http://www.w3.org/2000/svg">
<g clip-path="url(#clip0_122_1291)">
<path d="M8.25 11C9.3378 11 10.4012 10.6774 11.3056 10.0731C12.2101 9.46874 12.9151 8.60975 13.3313 7.60476C13.7476 6.59977 13.8565 5.4939 13.6443 4.42701C13.4321 3.36011 12.9083 2.3801 12.1391 1.61091C11.3699 0.841726 10.3899 0.317902 9.32299 0.105683C8.2561 -0.106535 7.15023 0.00238307 6.14524 0.418665C5.14025 0.834947 4.28126 1.5399 3.67692 2.44437C3.07257 3.34884 2.75 4.4122 2.75 5.5C2.75146 6.95825 3.33139 8.35635 4.36252 9.38748C5.39365 10.4186 6.79175 10.9985 8.25 11ZM8.25 1.83334C8.9752 1.83334 9.68411 2.04838 10.2871 2.45128C10.8901 2.85418 11.36 3.42683 11.6376 4.09683C11.9151 4.76683 11.9877 5.50407 11.8462 6.21533C11.7047 6.9266 11.3555 7.57993 10.8427 8.09273C10.3299 8.60552 9.67659 8.95473 8.96533 9.09621C8.25407 9.23769 7.51682 9.16508 6.84683 8.88756C6.17683 8.61004 5.60418 8.14007 5.20128 7.53709C4.79838 6.93411 4.58333 6.2252 4.58333 5.5C4.58333 4.52754 4.96964 3.59491 5.65727 2.90728C6.34491 2.21964 7.27754 1.83334 8.25 1.83334Z" fill="#292D32"/>
<path d="M8.25 12.8335C6.06278 12.8362 3.96591 13.7062 2.41932 15.2528C0.872719 16.7994 0.00266837 18.8963 0 21.0835C0 21.3266 0.0965771 21.5598 0.268485 21.7317C0.440394 21.9036 0.673551 22.0002 0.916666 22.0002C1.15978 22.0002 1.39294 21.9036 1.56485 21.7317C1.73676 21.5598 1.83333 21.3266 1.83333 21.0835C1.83333 19.3817 2.50937 17.7496 3.71273 16.5462C4.91609 15.3429 6.54819 14.6668 8.25 14.6668C9.9518 14.6668 11.5839 15.3429 12.7873 16.5462C13.9906 17.7496 14.6667 19.3817 14.6667 21.0835C14.6667 21.3266 14.7632 21.5598 14.9351 21.7317C15.1071 21.9036 15.3402 22.0002 15.5833 22.0002C15.8264 22.0002 16.0596 21.9036 16.2315 21.7317C16.4034 21.5598 16.5 21.3266 16.5 21.0835C16.4973 18.8963 15.6273 16.7994 14.0807 15.2528C12.5341 13.7062 10.4372 12.8362 8.25 12.8335Z" fill="#292D32"/>
<path d="M20.1666 7.21875C19.6565 7.24416 19.1772 7.47062 18.8336 7.84856C18.49 8.22651 18.3101 8.72517 18.3333 9.23542C18.3565 8.72517 18.1766 8.22651 17.833 7.84856C17.4894 7.47062 17.0101 7.24416 16.5 7.21875C15.9898 7.24416 15.5105 7.47062 15.167 7.84856C14.8234 8.22651 14.6435 8.72517 14.6667 9.23542C14.6667 10.8213 16.7347 12.6793 17.765 13.5062C17.9263 13.6353 18.1267 13.7057 18.3333 13.7057C18.5399 13.7057 18.7404 13.6353 18.9017 13.5062C19.932 12.6812 22 10.8213 22 9.23542C22.0232 8.72517 21.8433 8.22651 21.4997 7.84856C21.1561 7.47062 20.6768 7.24416 20.1666 7.21875Z" fill="#292D32"/>
</g>
<defs>
<clipPath id="clip0_122_1291">
<rect width="22" height="22" fill="#292D32"/>
</clipPath>
</defs>
</svg>
