<svg width="30" height="27" viewBox="0 0 30 27" fill="#FF3F6D" xmlns="http://www.w3.org/2000/svg">
<path d="M14.1251 4.60759L15 6.18837L15.8749 4.60759C16.4711 3.53038 17.341 2.62957 18.3968 1.99612C19.4441 1.36772 20.6375 1.02452 21.8584 1.0004C23.8263 1.09367 25.6789 1.95799 27.0149 3.40704C28.3576 4.86333 29.0694 6.79184 28.9947 8.77124L28.994 8.79009V8.80895C28.994 11.3206 27.6583 14.0747 25.5813 16.8029C23.5224 19.5074 20.8354 22.0563 18.3557 24.1363L18.355 24.1369C17.4154 24.9265 16.2274 25.3594 15 25.3594C13.7726 25.3594 12.5846 24.9265 11.645 24.1369L11.6443 24.1363C9.16456 22.0563 6.47762 19.5074 4.41869 16.8029C2.34175 14.0747 1.00605 11.3206 1.00605 8.80895V8.79009L1.00534 8.77124C0.930647 6.79184 1.64239 4.86333 2.98508 3.40704C4.32108 1.95799 6.1737 1.09367 8.14165 1.0004C9.36246 1.02452 10.5559 1.36772 11.6032 1.99612C12.659 2.62957 13.5289 3.53038 14.1251 4.60759Z" stroke="#292D32" stroke-width="2"/>
</svg>
