<svg width="23" height="23" viewBox="0 0 23 23" fill="none" xmlns="http://www.w3.org/2000/svg">
<g clip-path="url(#clip0_45_791)">
<path d="M20.8916 5.34633L14.1833 0.81916C13.392 0.280957 12.457 -0.00683594 11.5 -0.00683594C10.543 -0.00683594 9.60803 0.280957 8.81666 0.81916L2.10833 5.34633C1.45873 5.78541 0.926801 6.3772 0.559211 7.06977C0.191621 7.76235 -0.000397151 8.53454 6.16724e-07 9.31862V18.2081C0.00152231 19.4785 0.506845 20.6964 1.40513 21.5947C2.30341 22.4929 3.5213 22.9983 4.79166 22.9998H18.2083C19.4787 22.9983 20.6966 22.4929 21.5949 21.5947C22.4931 20.6964 22.9985 19.4785 23 18.2081V9.31862C23.0004 8.53454 22.8084 7.76235 22.4408 7.06977C22.0732 6.3772 21.5413 5.78541 20.8916 5.34633ZM21.0833 18.2081C21.0833 18.9706 20.7804 19.7019 20.2412 20.2411C19.7021 20.7802 18.9708 21.0831 18.2083 21.0831H4.79166C4.02917 21.0831 3.2979 20.7802 2.75873 20.2411C2.21957 19.7019 1.91667 18.9706 1.91667 18.2081V9.31862C1.91664 8.848 2.03214 8.38457 2.25304 7.96901C2.47393 7.55346 2.79347 7.19848 3.18358 6.93525L9.89191 2.40808C10.3663 2.08581 10.9265 1.9135 11.5 1.9135C12.0735 1.9135 12.6337 2.08581 13.1081 2.40808L19.8164 6.93525C20.2065 7.19848 20.526 7.55346 20.7469 7.96901C20.9678 8.38457 21.0833 8.848 21.0833 9.31862V18.2081ZM11.5 6.71387C10.3617 6.71373 9.24902 7.05143 8.30284 7.6842C7.35666 8.31697 6.61957 9.21633 6.18495 10.2684C5.75033 11.3204 5.63772 12.4777 5.86141 13.5938C6.08509 14.7099 6.63499 15.7345 7.44145 16.5377L9.18945 18.2474C9.80885 18.8472 10.6373 19.1826 11.4995 19.1826C12.3617 19.1826 13.1902 18.8472 13.8096 18.2474L15.5662 16.5301C16.3705 15.7259 16.9182 14.7013 17.1402 13.5858C17.3621 12.4703 17.2482 11.3141 16.8129 10.2633C16.3777 9.21259 15.6406 8.31451 14.6949 7.6827C13.7492 7.05089 12.6373 6.71373 11.5 6.71387ZM14.2178 15.1673L12.4689 16.878C12.209 17.1297 11.8613 17.2704 11.4995 17.2704C11.1377 17.2704 10.7901 17.1297 10.5302 16.878L8.78887 15.175C8.25312 14.6392 7.88816 13.9567 7.7401 13.2136C7.59203 12.4705 7.6675 11.7002 7.95697 11C8.24645 10.2998 8.73693 9.70106 9.36649 9.27944C9.99604 8.85783 10.7364 8.63224 11.4941 8.63117C12.2518 8.6301 12.9928 8.8536 13.6236 9.27343C14.2543 9.69326 14.7465 10.2906 15.0379 10.99C15.3294 11.6894 15.407 12.4595 15.2611 13.203C15.1151 13.9465 14.7521 14.63 14.2178 15.1673ZM12.4583 12.4581C12.4583 12.6477 12.4021 12.8329 12.2968 12.9905C12.1915 13.1481 12.0418 13.271 11.8667 13.3435C11.6916 13.416 11.4989 13.435 11.313 13.398C11.1271 13.3611 10.9564 13.2698 10.8223 13.1358C10.6883 13.0017 10.5971 12.831 10.5601 12.6451C10.5231 12.4592 10.5421 12.2665 10.6146 12.0914C10.6871 11.9163 10.81 11.7666 10.9676 11.6613C11.1252 11.556 11.3105 11.4998 11.5 11.4998C11.7542 11.4998 11.9979 11.6008 12.1776 11.7805C12.3574 11.9602 12.4583 12.204 12.4583 12.4581Z" fill="#292D32"/>
</g>
<defs>
<clipPath id="clip0_45_791">
<rect width="23" height="23" fill="#292D32"/>
</clipPath>
</defs>
</svg>
