<svg width="23" height="23" viewBox="0 0 23 23" fill="none" xmlns="http://www.w3.org/2000/svg">
<g clip-path="url(#clip0_125_1998)">
<path d="M13.8958 12.4584C13.6115 12.4584 13.3336 12.3741 13.0972 12.2161C12.8608 12.0582 12.6765 11.8336 12.5677 11.571C12.4589 11.3083 12.4305 11.0193 12.4859 10.7404C12.5414 10.4616 12.6783 10.2054 12.8794 10.0044C13.0804 9.80336 13.3365 9.66646 13.6154 9.61099C13.8942 9.55552 14.1833 9.58399 14.4459 9.69279C14.7086 9.80159 14.9331 9.98584 15.0911 10.2222C15.249 10.4586 15.3333 10.7366 15.3333 11.0209C15.3333 11.4021 15.1819 11.7678 14.9123 12.0373C14.6427 12.3069 14.2771 12.4584 13.8958 12.4584ZM20.9405 7.92928C20.5558 5.70604 19.397 3.69055 17.6693 2.23941C15.9416 0.78827 13.7563 -0.00497504 11.5 2.34795e-05C4.88749 2.34795e-05 2.99382 4.47928 1.7432 7.44341C1.4896 8.28209 1.0585 9.05639 0.479154 9.7137C0.306088 9.81464 0.169009 9.96728 0.0871893 10.1502C0.00536957 10.333 -0.0170758 10.537 0.0230089 10.7333C0.0630937 10.9296 0.163693 11.1084 0.310662 11.2445C0.457631 11.3807 0.643579 11.4674 0.842362 11.4924C3.21117 11.6916 5.59361 11.3304 7.79699 10.4382C7.67542 10.7076 7.63985 11.0079 7.69513 11.2983C7.75041 11.5887 7.89384 11.8549 8.1059 12.0608C8.31796 12.2667 8.58833 12.4022 8.88019 12.4489C9.17205 12.4956 9.4712 12.4512 9.73691 12.3217C10.0026 12.1923 10.222 11.984 10.3651 11.7254C10.5082 11.4668 10.5681 11.1704 10.5366 10.8765C10.5051 10.5826 10.3839 10.3055 10.1893 10.0831C9.99468 9.86058 9.73624 9.7035 9.44915 9.6332C11.3319 8.5785 12.9547 7.11579 14.1987 5.35232C14.2776 5.25036 14.3351 5.13353 14.3679 5.0088C14.4006 4.88408 14.4078 4.75404 14.3891 4.62646C14.3703 4.49888 14.3261 4.3764 14.2589 4.26634C14.1917 4.15628 14.103 4.06091 13.9981 3.98594C13.8932 3.91096 13.7742 3.85793 13.6483 3.83002C13.5225 3.80211 13.3922 3.79989 13.2655 3.82349C13.1387 3.8471 13.018 3.89604 12.9106 3.96739C12.8032 4.03874 12.7113 4.13103 12.6404 4.23874C11.5228 5.81217 10.0639 7.11254 8.37285 8.04255C6.68177 8.97257 4.80228 9.50815 2.87499 9.60924C3.09253 9.17512 3.29474 8.69307 3.5094 8.18803C4.68815 5.39353 6.15536 1.91669 11.5 1.91669C13.3935 1.91216 15.2213 2.61043 16.6295 3.87628C18.0377 5.14213 18.9261 6.8855 19.1226 8.76878C19.1445 8.97469 19.2326 9.16796 19.3735 9.31964C19.5145 9.47132 19.7008 9.57327 19.9046 9.6102C20.2537 9.67849 20.5651 9.87383 20.7786 10.1584C20.9921 10.4431 21.0924 10.7967 21.0602 11.151C21.0281 11.5053 20.8656 11.8351 20.6044 12.0766C20.3431 12.3181 20.0016 12.4541 19.6458 12.4584C19.5648 12.4561 19.484 12.4475 19.4043 12.4325C19.1808 12.3917 18.9501 12.4322 18.7538 12.5466C18.5575 12.661 18.4086 12.8418 18.3339 13.0564C17.456 15.5452 14.5015 18.2084 11.5 18.2084C8.72082 18.2084 6.13332 16.0205 5.0159 13.8585C4.89899 13.6328 4.6972 13.4628 4.45494 13.3859C4.21267 13.3089 3.94977 13.3314 3.72407 13.4483C3.49837 13.5652 3.32836 13.767 3.25144 14.0093C3.17452 14.2516 3.19699 14.5145 3.3139 14.7402C4.30713 16.5934 5.81998 18.1163 7.66665 19.1217L7.66665 22.0417C7.66665 22.2959 7.76762 22.5396 7.94734 22.7194C8.12706 22.8991 8.37082 23 8.62499 23C8.87915 23 9.12291 22.8991 9.30263 22.7194C9.48235 22.5396 9.58332 22.2959 9.58332 22.0417V19.874C10.8388 20.2113 12.1611 20.2113 13.4167 19.874V22.0417C13.4167 22.2959 13.5176 22.5396 13.6973 22.7194C13.8771 22.8991 14.1208 23 14.375 23C14.6292 23 14.8729 22.8991 15.0526 22.7194C15.2324 22.5396 15.3333 22.2959 15.3333 22.0417V19.1226C17.3114 18.0592 18.8997 16.3937 19.8682 14.3674C20.6212 14.316 21.3349 14.0121 21.8939 13.5049C22.4529 12.9976 22.8244 12.3166 22.9484 11.5721C23.0724 10.8275 22.9417 10.0629 22.5773 9.40186C22.213 8.74082 21.6363 8.22199 20.9405 7.92928Z" fill="#292D32"/>
</g>
<defs>
<clipPath id="clip0_125_1998">
<rect width="23" height="23" fill="white"/>
</clipPath>
</defs>
</svg>
