<svg width="21" height="21" viewBox="0 0 21 21" fill="none" xmlns="http://www.w3.org/2000/svg">
<g clip-path="url(#clip0_119_992)">
<path d="M6.5625 11.375C5.78374 11.375 5.02246 11.1441 4.37494 10.7114C3.72742 10.2788 3.22274 9.6638 2.92472 8.94432C2.6267 8.22483 2.54873 7.43313 2.70066 6.66933C2.85259 5.90553 3.2276 5.20394 3.77827 4.65327C4.32894 4.1026 5.03053 3.72759 5.79433 3.57566C6.55813 3.42373 7.34983 3.50171 8.06932 3.79973C8.7888 4.09775 9.40375 4.60243 9.83641 5.24994C10.2691 5.89746 10.5 6.65874 10.5 7.4375C10.4988 8.48144 10.0836 9.48228 9.34545 10.2205C8.60728 10.9586 7.60643 11.3738 6.5625 11.375ZM6.5625 5.25C6.12985 5.25 5.70692 5.3783 5.34719 5.61866C4.98746 5.85903 4.70708 6.20067 4.54151 6.60038C4.37595 7.0001 4.33263 7.43993 4.41703 7.86426C4.50144 8.2886 4.70978 8.67837 5.0157 8.9843C5.32163 9.29023 5.71141 9.49856 6.13574 9.58297C6.56007 9.66737 6.99991 9.62405 7.39962 9.45849C7.79933 9.29292 8.14097 9.01254 8.38134 8.65281C8.62171 8.29308 8.75 7.87015 8.75 7.4375C8.75 6.85734 8.51953 6.30094 8.1093 5.89071C7.69906 5.48047 7.14266 5.25 6.5625 5.25ZM13.125 17.5C13.1236 16.3401 12.6622 15.2281 11.8421 14.4079C11.0219 13.5878 9.9099 13.1264 8.75 13.125H4.375C3.2151 13.1264 2.10311 13.5878 1.28294 14.4079C0.462772 15.2281 0.00138938 16.3401 0 17.5L0 21H1.75V17.5C1.75 16.8038 2.02656 16.1361 2.51884 15.6438C3.01113 15.1516 3.67881 14.875 4.375 14.875H8.75C9.44619 14.875 10.1139 15.1516 10.6062 15.6438C11.0984 16.1361 11.375 16.8038 11.375 17.5V21H13.125V17.5ZM15.3125 7.875C14.5337 7.875 13.7725 7.64407 13.1249 7.21141C12.4774 6.77876 11.9727 6.1638 11.6747 5.44432C11.3767 4.72483 11.2987 3.93313 11.4507 3.16933C11.6026 2.40553 11.9776 1.70394 12.5283 1.15327C13.0789 0.6026 13.7805 0.227589 14.5443 0.0756597C15.3081 -0.0762696 16.0998 0.00170606 16.8193 0.299726C17.5388 0.597746 18.1538 1.10243 18.5864 1.74994C19.0191 2.39746 19.25 3.15874 19.25 3.9375C19.2488 4.98144 18.8336 5.98228 18.0955 6.72046C17.3573 7.45863 16.3564 7.87384 15.3125 7.875ZM15.3125 1.75C14.8799 1.75 14.4569 1.8783 14.0972 2.11866C13.7375 2.35903 13.4571 2.70067 13.2915 3.10038C13.1259 3.50009 13.0826 3.93993 13.167 4.36426C13.2514 4.7886 13.4598 5.17837 13.7657 5.4843C14.0716 5.79023 14.4614 5.99856 14.8857 6.08297C15.3101 6.16737 15.7499 6.12405 16.1496 5.95849C16.5493 5.79292 16.891 5.51254 17.1313 5.15281C17.3717 4.79308 17.5 4.37015 17.5 3.9375C17.5 3.35734 17.2695 2.80094 16.8593 2.39071C16.4491 1.98047 15.8927 1.75 15.3125 1.75ZM21 14C20.9986 12.8401 20.5372 11.7281 19.7171 10.9079C18.8969 10.0878 17.7849 9.62639 16.625 9.625H13.125V11.375H16.625C17.3212 11.375 17.9889 11.6516 18.4812 12.1438C18.9734 12.6361 19.25 13.3038 19.25 14V17.5H21V14Z" fill="#292D32"/>
</g>
<defs>
<clipPath id="clip0_119_992">
<rect width="21" height="21" fill="#FF3F6D"/>
</clipPath>
</defs>
</svg>
