<svg width="22" height="22" viewBox="0 0 22 22" fill="none" xmlns="http://www.w3.org/2000/svg">
<g clip-path="url(#clip0_121_1267)">
<path d="M17.7219 13.445C17.0288 13.4456 16.3463 13.6148 15.7332 13.938C15.1201 14.2612 14.5949 14.7288 14.2028 15.3003L8.23625 12.6062C8.66004 11.5829 8.66168 10.4334 8.24083 9.4089L14.1992 6.70107C14.7802 7.54143 15.6432 8.1457 16.6316 8.40427C17.62 8.66285 18.6684 8.5586 19.5865 8.11044C20.5047 7.66228 21.2318 6.89989 21.6359 5.96156C22.0401 5.02323 22.0946 3.97111 21.7895 2.99605C21.4844 2.021 20.8399 1.18758 19.973 0.646986C19.1061 0.10639 18.0741 -0.105582 17.0643 0.0495216C16.0544 0.204625 15.1336 0.71653 14.4689 1.49238C13.8041 2.26823 13.4395 3.25664 13.4411 4.27831C13.445 4.52013 13.4695 4.76117 13.5144 4.99881L7.18025 7.87715C6.5719 7.30718 5.8103 6.92733 4.98903 6.78426C4.16775 6.64119 3.32258 6.74114 2.55732 7.07182C1.79207 7.4025 1.14008 7.94951 0.681446 8.64565C0.222811 9.34179 -0.0224906 10.1567 -0.0243222 10.9904C-0.0261538 11.824 0.215564 12.64 0.671136 13.3382C1.12671 14.0363 1.77629 14.5862 2.54008 14.9202C3.30387 15.2543 4.1486 15.3579 4.9705 15.2185C5.79239 15.079 6.55565 14.7025 7.1665 14.1352L13.5172 17.0026C13.4731 17.24 13.4488 17.4807 13.4448 17.7222C13.4446 18.5684 13.6953 19.3956 14.1654 20.0993C14.6354 20.8029 15.3035 21.3514 16.0853 21.6753C16.867 21.9992 17.7273 22.084 18.5572 21.919C19.3872 21.754 20.1495 21.3465 20.7479 20.7481C21.3463 20.1498 21.7537 19.3874 21.9188 18.5575C22.0838 17.7275 21.999 16.8673 21.6751 16.0855C21.3512 15.3037 20.8027 14.6356 20.099 14.1656C19.3954 13.6956 18.5681 13.4448 17.7219 13.445ZM17.7219 1.83356C18.2055 1.83338 18.6782 1.97661 19.0804 2.24513C19.4826 2.51365 19.796 2.89541 19.9812 3.34211C20.1664 3.78882 20.215 4.2804 20.1207 4.7547C20.0265 5.22899 19.7937 5.66469 19.4519 6.00669C19.11 6.34869 18.6744 6.58162 18.2001 6.67602C17.7259 6.77043 17.2343 6.72207 16.7875 6.53706C16.3407 6.35205 15.9588 6.0387 15.6902 5.63664C15.4215 5.23458 15.2781 4.76188 15.2781 4.27831C15.2786 3.63023 15.5362 3.00882 15.9943 2.55047C16.4525 2.09212 17.0738 1.83429 17.7219 1.83356ZM4.27808 13.445C3.79452 13.4452 3.32176 13.3019 2.9196 13.0334C2.51745 12.7649 2.20395 12.3831 2.01878 11.9364C1.8336 11.4897 1.78505 10.9981 1.87928 10.5239C1.97351 10.0496 2.20628 9.61386 2.54814 9.27186C2.89001 8.92986 3.32562 8.69693 3.79988 8.60253C4.27414 8.50812 4.76575 8.55648 5.21252 8.74149C5.65929 8.9265 6.04117 9.23985 6.30984 9.64191C6.57851 10.044 6.72192 10.5167 6.72192 11.0002C6.72119 11.6482 6.46351 12.2695 6.00539 12.7278C5.54726 13.1861 4.92609 13.444 4.27808 13.445ZM17.7219 20.1669C17.2384 20.1669 16.7657 20.0235 16.3637 19.7549C15.9617 19.4863 15.6483 19.1044 15.4633 18.6577C15.2782 18.211 15.2298 17.7194 15.3241 17.2452C15.4185 16.771 15.6513 16.3354 15.9932 15.9935C16.3351 15.6516 16.7707 15.4187 17.245 15.3244C17.7192 15.2301 18.2108 15.2785 18.6575 15.4635C19.1042 15.6485 19.486 15.9619 19.7547 16.3639C20.0233 16.766 20.1667 17.2386 20.1667 17.7222C20.1662 18.3704 19.9085 18.9919 19.4501 19.4503C18.9917 19.9087 18.3702 20.1664 17.7219 20.1669Z" fill="#292D32"/>
</g>
<defs>
<clipPath id="clip0_121_1267">
<rect width="22" height="22" fill="#292D32"/>
</clipPath>
</defs>
</svg>
