<svg width="35" height="34" viewBox="0 0 35 34" fill="none" xmlns="http://www.w3.org/2000/svg">
<path d="M1.92267 17.8063L7.11434 21.5979L5.14267 27.704C4.82404 28.651 4.82001 29.6756 5.13116 30.6251C5.44232 31.5746 6.05201 32.3981 6.86934 32.9729C7.67266 33.5661 8.64616 33.8839 9.64477 33.8789C10.6434 33.8739 11.6137 33.5464 12.411 32.9452L17.4875 29.209L22.5654 32.9408C23.3673 33.5307 24.3355 33.851 25.3309 33.8559C26.3263 33.8607 27.2977 33.5498 28.1052 32.9678C28.9128 32.3858 29.5151 31.5628 29.8254 30.6169C30.1357 29.6711 30.1381 28.6512 29.8323 27.704L27.8606 21.5979L33.0523 17.8063C33.8531 17.2207 34.4484 16.3971 34.7532 15.4531C35.0579 14.509 35.0566 13.4928 34.7493 12.5495C34.442 11.6063 33.8445 10.7843 33.0421 10.2009C32.2397 9.61755 31.2735 9.30268 30.2814 9.30126H23.9041L21.9689 3.2696C21.6646 2.32016 21.0666 1.49191 20.2612 0.90428C19.4557 0.316647 18.4845 0 17.4875 0C16.4904 0 15.5192 0.316647 14.7138 0.90428C13.9083 1.49191 13.3103 2.32016 13.006 3.2696L11.0708 9.30126H4.69934C3.7073 9.30268 2.74108 9.61755 1.93868 10.2009C1.13629 10.7843 0.538773 11.6063 0.231474 12.5495C-0.0758247 13.4928 -0.0771849 14.509 0.227588 15.4531C0.532361 16.3971 1.12768 17.2207 1.92851 17.8063H1.92267Z" fill="#292D32"/>
</svg>
