<svg width="28" height="28" viewBox="0 0 28 28" fill="none" xmlns="http://www.w3.org/2000/svg">
<g clip-path="url(#clip0_304_44)">
<path d="M18.6667 0H18.515C17.9929 0.00496045 17.4872 0.183182 17.0773 0.506682C16.6674 0.830183 16.3766 1.28064 16.2505 1.78733C16.1154 2.28064 15.822 2.71591 15.4154 3.02616C15.0088 3.33642 14.5115 3.50447 14 3.50447C13.4885 3.50447 12.9912 3.33642 12.5846 3.02616C12.178 2.71591 11.8846 2.28064 11.7495 1.78733C11.6234 1.28064 11.3326 0.830183 10.9227 0.506682C10.5128 0.183182 10.0071 0.00496045 9.485 0L9.33333 0C7.78681 0.0018525 6.30415 0.617029 5.21059 1.71059C4.11703 2.80415 3.50185 4.28681 3.5 5.83333V24.5C3.5 25.4283 3.86875 26.3185 4.52513 26.9749C5.1815 27.6312 6.07174 28 7 28H9.485C10.0071 27.995 10.5128 27.8168 10.9227 27.4933C11.3326 27.1698 11.6234 26.7194 11.7495 26.2127C11.8846 25.7194 12.178 25.2841 12.5846 24.9738C12.9912 24.6636 13.4885 24.4955 14 24.4955C14.5115 24.4955 15.0088 24.6636 15.4154 24.9738C15.822 25.2841 16.1154 25.7194 16.2505 26.2127C16.3766 26.7194 16.6674 27.1698 17.0773 27.4933C17.4872 27.8168 17.9929 27.995 18.515 28H21C21.9283 28 22.8185 27.6312 23.4749 26.9749C24.1312 26.3185 24.5 25.4283 24.5 24.5V5.83333C24.4981 4.28681 23.883 2.80415 22.7894 1.71059C21.6958 0.617029 20.2132 0.0018525 18.6667 0V0ZM21 25.6667L18.4998 25.5932C18.2258 24.6032 17.6328 23.7312 16.8127 23.1126C15.9927 22.4939 14.9914 22.1631 13.9642 22.1715C12.937 22.1799 11.9413 22.527 11.1314 23.1589C10.3216 23.7908 9.74284 24.6723 9.485 25.6667H7C6.69058 25.6667 6.39383 25.5437 6.17504 25.325C5.95625 25.1062 5.83333 24.8094 5.83333 24.5V19.8333H8.16667C8.47609 19.8333 8.77283 19.7104 8.99162 19.4916C9.21042 19.2728 9.33333 18.9761 9.33333 18.6667C9.33333 18.3572 9.21042 18.0605 8.99162 17.8417C8.77283 17.6229 8.47609 17.5 8.16667 17.5H5.83333V5.83333C5.83333 4.90508 6.20208 4.01484 6.85846 3.35846C7.51484 2.70208 8.40508 2.33333 9.33333 2.33333L9.50017 2.40683C9.77343 3.39083 10.3612 4.25839 11.1737 4.87708C11.9861 5.49577 12.9788 5.83161 14 5.83333C15.035 5.82453 16.0388 5.47785 16.8587 4.84606C17.6785 4.21426 18.2696 3.33194 18.5418 2.33333H18.6667C19.5949 2.33333 20.4852 2.70208 21.1415 3.35846C21.7979 4.01484 22.1667 4.90508 22.1667 5.83333V17.5H19.8333C19.5239 17.5 19.2272 17.6229 19.0084 17.8417C18.7896 18.0605 18.6667 18.3572 18.6667 18.6667C18.6667 18.9761 18.7896 19.2728 19.0084 19.4916C19.2272 19.7104 19.5239 19.8333 19.8333 19.8333H22.1667V24.5C22.1667 24.8094 22.0437 25.1062 21.825 25.325C21.6062 25.5437 21.3094 25.6667 21 25.6667Z" fill="#292D32"/>
<path d="M15.1667 17.5H12.8333C12.5239 17.5 12.2272 17.6229 12.0084 17.8417C11.7896 18.0605 11.6667 18.3572 11.6667 18.6667C11.6667 18.9761 11.7896 19.2728 12.0084 19.4916C12.2272 19.7104 12.5239 19.8333 12.8333 19.8333H15.1667C15.4761 19.8333 15.7728 19.7104 15.9916 19.4916C16.2104 19.2728 16.3333 18.9761 16.3333 18.6667C16.3333 18.3572 16.2104 18.0605 15.9916 17.8417C15.7728 17.6229 15.4761 17.5 15.1667 17.5Z" fill="#292D32"/>
</g>
<defs>
<clipPath id="clip0_304_44">
<rect width="28" height="28" fill="white"/>
</clipPath>
</defs>
</svg>
