<svg width="14" height="15" viewBox="0 0 14 15" fill="none" xmlns="http://www.w3.org/2000/svg">
<g clip-path="url(#clip0_34_696)">
<path d="M13.4167 14.5517C13.2619 14.5517 13.1136 14.4902 13.0042 14.3808C12.8948 14.2715 12.8333 14.1231 12.8333 13.9684C12.8324 13.0404 12.4634 12.1507 11.8072 11.4945C11.151 10.8383 10.2613 10.4693 9.33333 10.4684H5.9325V11.3935C5.93245 11.6242 5.864 11.8498 5.7358 12.0416C5.6076 12.2334 5.42541 12.3829 5.21226 12.4712C4.99911 12.5594 4.76457 12.5825 4.53829 12.5376C4.31202 12.4926 4.10416 12.3815 3.941 12.2184L0.511582 8.78896C0.183508 8.46078 -0.000793457 8.01574 -0.000793457 7.55171C-0.000793457 7.08767 0.183508 6.64263 0.511582 6.31446L3.941 2.88504C4.10416 2.72193 4.31202 2.61086 4.53829 2.56586C4.76457 2.52087 4.99911 2.54397 5.21226 2.63225C5.42541 2.72053 5.6076 2.87003 5.7358 3.06184C5.864 3.25365 5.93245 3.47917 5.9325 3.70987V4.63504H8.74999C10.1419 4.63658 11.4764 5.1902 12.4606 6.17444C13.4448 7.15867 13.9984 8.49313 14 9.88504V13.9684C14 14.1231 13.9385 14.2715 13.8291 14.3808C13.7197 14.4902 13.5714 14.5517 13.4167 14.5517ZM4.76583 3.70987L1.33642 7.13929C1.22706 7.24868 1.16562 7.39703 1.16562 7.55171C1.16562 7.70639 1.22706 7.85473 1.33642 7.96412L4.76583 11.3935V9.88504C4.76583 9.73033 4.82729 9.58196 4.93668 9.47256C5.04608 9.36316 5.19445 9.30171 5.34916 9.30171H9.33333C9.99575 9.30151 10.6506 9.44262 11.2542 9.71563C11.8577 9.98864 12.3961 10.3873 12.8333 10.8849V9.88504C12.8321 8.80245 12.4015 7.76456 11.636 6.99905C10.8705 6.23355 9.83258 5.80294 8.74999 5.80171H5.34916C5.19445 5.80171 5.04608 5.74025 4.93668 5.63085C4.82729 5.52146 4.76583 5.37308 4.76583 5.21837V3.70987Z" fill="#292D32"/>
</g>
<defs>
<clipPath id="clip0_34_696">
<rect width="14" height="14" fill="white" transform="translate(0 0.551758)"/>
</clipPath>
</defs>
</svg>
