<svg width="23" height="23" viewBox="0 0 23 23" fill="none" xmlns="http://www.w3.org/2000/svg">
<g clip-path="url(#clip0_125_2013)">
<path d="M13.8959 12.4584C13.6116 12.4584 13.3336 12.3741 13.0972 12.2161C12.8608 12.0581 12.6766 11.8336 12.5678 11.571C12.459 11.3083 12.4305 11.0193 12.486 10.7404C12.5415 10.4616 12.6784 10.2054 12.8794 10.0044C13.0804 9.80336 13.3366 9.66645 13.6154 9.61098C13.8943 9.55552 14.1833 9.58398 14.446 9.69279C14.7086 9.80159 14.9332 9.98584 15.0911 10.2222C15.2491 10.4586 15.3334 10.7366 15.3334 11.0209C15.3334 11.4021 15.1819 11.7677 14.9123 12.0373C14.6428 12.3069 14.2771 12.4584 13.8959 12.4584ZM22.9282 17.388C23.0478 18.0763 23.0154 18.7824 22.8334 19.4569C22.6514 20.1314 22.3241 20.7579 21.8744 21.2925C21.4248 21.8272 20.8636 22.257 20.2304 22.552C19.5971 22.8469 18.907 22.9999 18.2084 23H14.375C14.1209 23 13.8771 22.8991 13.6974 22.7193C13.5177 22.5396 13.4167 22.2959 13.4167 22.0417V19.873C12.7911 20.038 12.147 20.1227 11.5 20.125C10.8527 20.1217 10.2084 20.0347 9.58337 19.8663V22.0417C9.58337 22.2959 9.4824 22.5396 9.30268 22.7193C9.12296 22.8991 8.8792 23 8.62503 23H4.7917C4.0931 22.9999 3.40299 22.8469 2.76971 22.552C2.13644 22.257 1.57532 21.8272 1.12566 21.2925C0.676012 20.7579 0.348706 20.1314 0.166678 19.4569C-0.0153501 18.7824 -0.0476973 18.0763 0.0719027 17.388L0.359403 15.7205C0.455004 15.1659 0.714556 14.6527 1.10459 14.247C1.49462 13.8413 1.99724 13.5617 2.54765 13.4444C3.09805 13.327 3.67099 13.3772 4.19259 13.5885C4.71419 13.7999 5.16052 14.1626 5.47403 14.6299C6.68537 16.4105 9.01699 18.2084 11.5 18.2084C14.4996 18.2084 17.4551 15.5452 18.333 13.0564C18.4034 12.8693 18.529 12.708 18.6931 12.5939C18.8572 12.4797 19.0521 12.4181 19.252 12.4172L19.666 12.4239C19.8516 12.4261 20.0357 12.3915 20.2078 12.322C20.3798 12.2525 20.5364 12.1495 20.6682 12.0189C20.8001 11.8884 20.9047 11.7329 20.976 11.5616C21.0473 11.3902 21.0838 11.2064 21.0834 11.0209C21.083 10.6847 20.9649 10.3594 20.7496 10.1013C20.5342 9.84323 20.2353 9.66878 19.9046 9.60828C19.7007 9.57129 19.5143 9.46921 19.3733 9.31734C19.2323 9.16547 19.1444 8.97199 19.1226 8.7659C18.9257 6.88306 18.0371 5.14027 16.6289 3.87497C15.2207 2.60967 13.3932 1.91188 11.5 1.91669C6.15541 1.91669 4.6882 5.39353 3.50945 8.18803C3.29478 8.69307 3.09257 9.17511 2.87503 9.60924C4.80203 9.50734 6.68105 8.97099 8.37148 8.0403C10.0619 7.10962 11.52 5.80871 12.6366 4.2349C12.7097 4.13246 12.8023 4.04542 12.9091 3.97876C13.0158 3.9121 13.1347 3.86712 13.2588 3.84638C13.383 3.82565 13.51 3.82957 13.6326 3.85792C13.7552 3.88627 13.8711 3.93849 13.9735 4.01161C14.0759 4.08473 14.163 4.17731 14.2296 4.28407C14.2963 4.39082 14.3413 4.50966 14.362 4.6338C14.3828 4.75794 14.3788 4.88495 14.3505 5.00758C14.3221 5.1302 14.2699 5.24604 14.1968 5.34849C12.9529 7.11197 11.3301 8.57469 9.44728 9.62936C9.73428 9.69983 9.99259 9.85703 10.187 10.0796C10.3815 10.3021 10.5026 10.5792 10.5339 10.873C10.5653 11.1669 10.5053 11.4632 10.3621 11.7218C10.2189 11.9803 9.99957 12.1884 9.73388 12.3178C9.46819 12.4472 9.16908 12.4915 8.87727 12.4448C8.58547 12.3981 8.31515 12.2626 8.10314 12.0567C7.89112 11.8509 7.7477 11.5846 7.69241 11.2943C7.63713 11.004 7.67265 10.7037 7.79416 10.4344C5.59077 11.3266 3.20834 11.6877 0.839528 11.4885C0.642084 11.4621 0.457794 11.3747 0.312288 11.2387C0.166782 11.1026 0.0672933 10.9246 0.0276577 10.7294C-0.0119779 10.5341 0.0102101 10.3314 0.091136 10.1494C0.172062 9.96735 0.307703 9.81506 0.479195 9.7137C1.05854 9.05638 1.48964 8.28209 1.74324 7.4434C2.99386 4.47928 4.88753 2.68403e-05 11.5 2.68403e-05C13.7563 -0.00531824 15.9417 0.787823 17.6693 2.23904C19.397 3.69026 20.5554 5.70595 20.9396 7.92928C21.5495 8.18424 22.0704 8.6137 22.437 9.16374C22.8036 9.71377 22.9994 10.3599 23 11.0209C22.9984 11.8172 22.7076 12.5859 22.1816 13.1838C22.1883 13.2087 22.2056 13.2289 22.2104 13.2557L22.9282 17.388ZM7.6667 19.1092C6.15086 18.2969 4.85483 17.1288 3.88991 15.7052C3.80779 15.5811 3.69638 15.4791 3.56551 15.4082C3.43465 15.3374 3.28835 15.2998 3.13953 15.2989H3.12324C2.91342 15.3033 2.71165 15.3804 2.55241 15.5171C2.39317 15.6538 2.28635 15.8416 2.2502 16.0483L1.9627 17.7148C1.89076 18.1277 1.90994 18.5512 2.01889 18.9559C2.12784 19.3605 2.32393 19.7364 2.59343 20.0573C2.86293 20.3782 3.19932 20.6363 3.57904 20.8136C3.95877 20.9908 4.37265 21.0829 4.7917 21.0834H7.6667V19.1092ZM21.0403 17.7148L20.4384 14.2524C20.2562 14.2958 20.0705 14.3234 19.8835 14.3348C18.9167 16.375 17.3222 18.0521 15.3334 19.1207V21.0834H18.2084C18.6276 21.0833 19.0417 20.9915 19.4217 20.8145C19.8017 20.6375 20.1384 20.3796 20.4082 20.0587C20.678 19.7379 20.8743 19.3619 20.9835 18.9572C21.0927 18.5525 21.1121 18.1288 21.0403 17.7158V17.7148Z" fill="#292D32"/>
</g>
<defs>
<clipPath id="clip0_125_2013">
<rect width="23" height="23" fill="white"/>
</clipPath>
</defs>
</svg>
